<svg id="Layer_1" data-name="Layer 1" xmlns="http://www.w3.org/2000/svg" viewBox="0 0 16 16"><title>icon</title><path d="M12.54,2.92H6.27a1.07,1.07,0,0,0-1,1.15V6.42h.35V4.07a.69.69,0,0,1,.63-.74h6.27a.69.69,0,0,1,.63.74v5.3a.7.7,0,0,1-.63.74H10.33c0,.13.06.27.08.41h2.13a1.08,1.08,0,0,0,1-1.15V4.07A1.07,1.07,0,0,0,12.54,2.92Z"/><path d="M6.87,3.82a.33.33,0,0,1-.31-.35V2.55a.32.32,0,1,1,.63,0v.92A.34.34,0,0,1,6.87,3.82Z"/><path d="M8.48,3.82a.33.33,0,0,1-.31-.35V2.55a.31.31,0,1,1,.62,0v.92A.33.33,0,0,1,8.48,3.82Z"/><path d="M10.08,3.82a.34.34,0,0,1-.32-.35V2.55a.32.32,0,1,1,.63,0v.92A.33.33,0,0,1,10.08,3.82Z"/><path d="M11.68,3.82a.33.33,0,0,1-.31-.35V2.55a.33.33,0,0,1,.31-.35.34.34,0,0,1,.32.35v.92A.34.34,0,0,1,11.68,3.82Z"/><path d="M12.56,5.48H9.08c0,.15,0,.27,0,.37h3.49Z"/><path d="M9.79,9.38a2.13,2.13,0,0,1,1-1.81,2.25,2.25,0,0,0-1.74-1c-.75-.07-1.45.44-1.83.44s-1-.43-1.57-.42a2.33,2.33,0,0,0-2,1.2c-.84,1.46-.22,3.62.6,4.8.4.58.88,1.23,1.5,1.21s.84-.39,1.57-.39.93.39,1.57.37,1.06-.59,1.46-1.17a5.23,5.23,0,0,0,.66-1.35A2.11,2.11,0,0,1,9.79,9.38ZM8.59,5.84a2.11,2.11,0,0,0,.5-1.52A2.17,2.17,0,0,0,7.68,5a2,2,0,0,0-.5,1.47,1.74,1.74,0,0,0,1.41-.67Zm0,0"/></svg>