<svg id="Layer_1" data-name="Layer 1" xmlns="http://www.w3.org/2000/svg" viewBox="0 0 16 16"><title>icon</title><path d="M6.44,9.94H9A2.72,2.72,0,1,1,6.44,6.31,2.69,2.69,0,0,1,8.2,7L9.39,5.6A4.47,4.47,0,0,0,6.44,4.5,4.54,4.54,0,1,0,11,9V8.13H6.44Z"/><path d="M12.89,2.87H6.62A1.08,1.08,0,0,0,5.65,4v.06l.11,0,.24,0V4a.7.7,0,0,1,.62-.74h6.27a.7.7,0,0,1,.63.74v5.3a.69.69,0,0,1-.63.74H11.16l-.09.41h1.82a1.07,1.07,0,0,0,1-1.15V4A1.08,1.08,0,0,0,12.89,2.87Z"/><path d="M7.23,3.77a.34.34,0,0,1-.32-.35V2.51a.35.35,0,0,1,.32-.36.34.34,0,0,1,.31.36v.91A.33.33,0,0,1,7.23,3.77Z"/><path d="M8.83,3.77a.33.33,0,0,1-.31-.35V2.51a.32.32,0,1,1,.63,0v.91A.33.33,0,0,1,8.83,3.77Z"/><path d="M10.43,3.77a.33.33,0,0,1-.31-.35V2.51a.31.31,0,1,1,.62,0v.91A.33.33,0,0,1,10.43,3.77Z"/><path d="M12,3.77a.33.33,0,0,1-.32-.35V2.51a.32.32,0,1,1,.63,0v.91A.33.33,0,0,1,12,3.77Z"/><path d="M9.86,5.43l.32.37h2.73V5.43Z"/></svg>