<svg id="Layer_1" data-name="Layer 1" xmlns="http://www.w3.org/2000/svg" viewBox="0 0 16 16">
  <title>icon</title>
  <path d="M12.05,13H4a1.38,1.38,0,0,1-1.26-1.48V4.66A1.38,1.38,0,0,1,4,3.18h8.1a1.38,1.38,0,0,1,1.26,1.48v6.85A1.38,1.38,0,0,1,12.05,13ZM4,3.71a.89.89,0,0,0-.81,1v6.85a.89.89,0,0,0,.81,1h8.1a.89.89,0,0,0,.81-1V4.66a.89.89,0,0,0-.81-1Z" fill="white"/>
  <path d="M4.73,4.34a.43.43,0,0,1-.4-.46V2.7a.43.43,0,0,1,.4-.45.43.43,0,0,1,.41.45V3.88A.44.44,0,0,1,4.73,4.34Z" fill="white"/>
  <path d="M6.81,4.34a.43.43,0,0,1-.41-.46V2.7a.41.41,0,1,1,.81,0V3.88A.43.43,0,0,1,6.81,4.34Z" fill="white"/>
  <path d="M8.87,4.34a.43.43,0,0,1-.41-.46V2.7a.41.41,0,1,1,.81,0V3.88A.43.43,0,0,1,8.87,4.34Z" fill="white"/>
  <path d="M10.94,4.34a.43.43,0,0,1-.4-.46V2.7a.43.43,0,0,1,.4-.45.43.43,0,0,1,.41.45V3.88A.44.44,0,0,1,10.94,4.34Z" fill="white"/>
  <rect x="3.93" y="6.49" width="8.15" height="0.48" fill="white"/>
</svg>
