<svg id="Layer_1" data-name="Layer 1" xmlns="http://www.w3.org/2000/svg" viewBox="0 0 16 16">
  <title>icon</title>
  <path d="M8,2.52A2.35,2.35,0,1,1,5.64,4.87,2.35,2.35,0,0,1,8,2.52" fill="white"/>
  <path d="M8,2a2.85,2.85,0,1,0,2.85,2.85A2.86,2.86,0,0,0,8,2Z" fill="white"/>
  <path d="M10,8.1a5.11,5.11,0,0,1,3,4.62H3A5.12,5.12,0,0,1,6,8.1,2.36,2.36,0,0,0,10,8.1" fill="white"/>
  <path d="M6,7.59a.39.39,0,0,0-.18,0,5.59,5.59,0,0,0-3.29,5.13.45.45,0,0,0,.45.46H13a.45.45,0,0,0,.45-.46,5.59,5.59,0,0,0-3.29-5.13h0a.39.39,0,0,0-.18,0,.44.44,0,0,0-.39.22,1.86,1.86,0,0,1-3.24,0A.44.44,0,0,0,6,7.59Z" fill="white"/>
</svg>
