<svg id="Layer_1" data-name="Layer 1" xmlns="http://www.w3.org/2000/svg" viewBox="0 0 99.24 11.87"><title>icon</title><path d="M29.29,2.77c-5.34,0-27.54.14-27.55.72,0,.32.33.21.52.21l9.08.17,12.83.23c2,0,4.07.09,6.11.12.67,0,1-.24,1-.7s-.37-.75-1.07-.75Z"/><path d="M71.69,4.13h.68c2.24,0,25.08,0,25.09-.61,0-.27-.25-.18-.41-.18L90.94,3.2c-4.38-.08-8.75-.15-13.12-.24-2.95,0-5.9-.12-8.85-.19h-.24a.7.7,0,0,0-.79.76c0,.49.31.69.78.69C69.72,4.22,70.71,4.16,71.69,4.13Z"/><path d="M35,3.35C34.73,2.4,34.27,2,33.51,2a1.56,1.56,0,0,0-1.58,1.11A1.63,1.63,0,0,0,32.67,5a3.13,3.13,0,0,0,2.56.35A6.67,6.67,0,0,0,38.29,3.7a20.47,20.47,0,0,1,2.48-1.95,3.75,3.75,0,0,1,2.88-.55c.34.06.69.14.76.54s-.32.57-.65.72l-.27.12a1.3,1.3,0,0,0,1.9-.17A1.24,1.24,0,0,0,45,.65,3.41,3.41,0,0,0,41.76.21,8.84,8.84,0,0,0,39,1.72a20.89,20.89,0,0,1-3,2,3.63,3.63,0,0,1-2.11.47c-.41,0-.88-.08-.8-.69,0-.45.43-.64,1-.49A8.88,8.88,0,0,1,35,3.35Z"/><path d="M64.3,3.32A7.41,7.41,0,0,1,65.1,3c.58-.15,1,0,1,.49s-.22.66-.87.7a3.93,3.93,0,0,1-2.2-.56,19.85,19.85,0,0,1-2.65-1.79,9.21,9.21,0,0,0-3-1.64,3.52,3.52,0,0,0-3,.32,1.45,1.45,0,0,0-.73,1.55c.28.84,1.18,1.08,2.07.51l-.43-.17c-.28-.13-.55-.3-.52-.65s.35-.47.64-.54a3.75,3.75,0,0,1,2.8.39,16.05,16.05,0,0,1,2.5,1.91,6.5,6.5,0,0,0,4.11,1.89,2.42,2.42,0,0,0,2.3-1.06A1.48,1.48,0,0,0,67,2.58a1.54,1.54,0,0,0-1.75-.53A1.27,1.27,0,0,0,64.3,3.32Z"/><path d="M49.59,7.16a4.07,4.07,0,0,0,0,4.71A4,4,0,0,0,49.59,7.16Z"/><path d="M48.54,6.09A4,4,0,0,0,45.9,10,4.08,4.08,0,0,0,48.54,6.09Z"/><path d="M50.7,6.1A4,4,0,0,0,53.33,10,4,4,0,0,0,50.7,6.1Z"/><path d="M42.75,3.61c-.13-.22.09-.3.17-.44a1.83,1.83,0,0,0-1.61,2,1,1,0,0,0,.78.81,1,1,0,0,0,1.16-.38,2,2,0,0,0,.42-2c-.17.1-.14.28-.2.43a3.34,3.34,0,0,1-.18.5c-.14.28-.32.57-.71.46s-.5-.22-.45-.53.09-.8.63-.81Z"/><path d="M45.26,3.51a3.52,3.52,0,0,1,.49.74c.17.41.21.78-.28,1s-.7-.1-.82-.62c-.06-.29-.1-.58-.14-.87a1.86,1.86,0,0,0,.42,2.46,1.14,1.14,0,0,0,1.52-.33A1.74,1.74,0,0,0,45.26,3.51Z"/><path d="M53.2,2.9a8.32,8.32,0,0,1-1,.51A.56.56,0,0,1,51.47,3a.53.53,0,0,1,.34-.71A3.31,3.31,0,0,1,53,2.12a1.82,1.82,0,0,0-2.52.43,1.1,1.1,0,0,0,.61,1.56A1.81,1.81,0,0,0,53.2,2.9Z"/><path d="M53.93,3.49a1.79,1.79,0,0,0-1.22,2.24A1.11,1.11,0,0,0,54.5,6a2,2,0,0,0,.18-2.39,3.57,3.57,0,0,1-.17,1.15c-.15.33-.36.59-.77.43s-.49-.45-.31-.86A6.62,6.62,0,0,1,53.93,3.49Z"/><path d="M45.91,2.87a2.12,2.12,0,0,0,1.6,1.29,1.09,1.09,0,0,0,1.27-.62,1.06,1.06,0,0,0-.4-1.4,2.2,2.2,0,0,0-2.25-.09c.46.16.83.08,1.17.22s.57.43.42.83-.48.43-.83.27S46.29,3.06,45.91,2.87Z"/><path d="M56.31,3.16a4.19,4.19,0,0,1,.75,1,.5.5,0,0,1-.2.71.55.55,0,0,1-.79-.12,5.67,5.67,0,0,1-.52-1.33,2.29,2.29,0,0,0,.58,2.35,1,1,0,0,0,1.3.09,1,1,0,0,0,.47-1.23A1.9,1.9,0,0,0,56.31,3.16Z"/><path d="M49.62,6.36a2.34,2.34,0,0,0,0-2.53A2.05,2.05,0,0,0,49.62,6.36Z"/><path d="M98.53,2.88a.57.57,0,0,0-.57.63.61.61,0,0,0,.68.65.62.62,0,0,0,.6-.68A.62.62,0,0,0,98.53,2.88Z"/><path d="M.46,2.88c-.23,0-.46.23-.46.62a.61.61,0,0,0,.61.66.61.61,0,0,0,.66-.67C1.25,3.13,1.05,2.87.46,2.88Z"/><path d="M54.19,4.43a.31.31,0,0,0,.3-.35.29.29,0,0,0-.31-.28.3.3,0,0,0-.35.31A.33.33,0,0,0,54.19,4.43Z"/><path d="M56.23,4.17a.33.33,0,0,0,.34-.32.3.3,0,0,0-.29-.36.29.29,0,0,0-.34.31A.32.32,0,0,0,56.23,4.17Z"/><path d="M42.76,3.6c-.21.17-.15.34,0,.49a.27.27,0,0,0,.41,0,.26.26,0,0,0,0-.37c-.15-.19-.31-.25-.49-.06Z"/><path d="M52.94,2.64c-.07-.2-.2-.31-.4-.26a.29.29,0,0,0-.26.33.3.3,0,0,0,.36.29A.35.35,0,0,0,52.94,2.64Z"/><path d="M46.6,3c.21,0,.33-.14.32-.36a.28.28,0,0,0-.31-.28.27.27,0,0,0-.3.28A.32.32,0,0,0,46.6,3Z"/><path d="M45.36,4.14c0-.23-.11-.32-.28-.33a.27.27,0,0,0-.33.31.28.28,0,0,0,.29.3A.28.28,0,0,0,45.36,4.14Z"/></svg>