<svg id="Layer_1" data-name="Layer 1" xmlns="http://www.w3.org/2000/svg" viewBox="0 0 16 16"><title>icon</title>
  <path fill="white" d="M12.89,4.65H11.18a1,1,0,0,0,.31-.38A1.1,1.1,0,0,0,11.4,3.2a1.33,1.33,0,0,0-1.92-.27,8.77,8.77,0,0,0-1,.86q-.36.33-.69.69A14.22,14.22,0,0,0,6.39,3.11a1.79,1.79,0,0,0-1-.47A1.19,1.19,0,0,0,4.4,3a1.13,1.13,0,0,0,0,1.65H2.77a.29.29,0,0,0-.29.28V7.58a.29.29,0,0,0,.29.29H3.2v5.07a.28.28,0,0,0,.28.29h8.69a.29.29,0,0,0,.29-.29V7.87h.43a.29.29,0,0,0,.28-.29V4.93A.29.29,0,0,0,12.89,4.65Zm-5.73,0V4.55l-.07.14c-.52,0-1-.07-1.56-.13H5.43a1.39,1.39,0,0,1-.75-.24.68.68,0,0,1-.15-.83A.82.82,0,0,1,5.27,3a1.38,1.38,0,0,1,.86.38c.41.35.79.7,1.14,1.06l.25.26ZM2.91,7.42V5.07H7.62V7.42Zm5.47-3c.31-.31.63-.61.95-.89a2,2,0,0,1,.8-.51,1,1,0,0,1,.24,0,.81.81,0,0,1,.6.25.76.76,0,0,1,.14.86,1,1,0,0,1-.75.4,13.63,13.63,0,0,1-1.5.13l-.73,0ZM3.63,12.8v-5H12v5ZM8.05,7.43V5.08h4.7V7.43Z"/>
  <path fill="white" d="M7.72,7.62H8v.49A1.51,1.51,0,0,1,9.1,8.7l-.45.36A.85.85,0,0,0,8,8.69V9.81a2,2,0,0,1,1,.68,1.39,1.39,0,0,1,.22.71,1.18,1.18,0,0,1-.31.81A1.27,1.27,0,0,1,8,12.4V13H7.72V12.4a1.49,1.49,0,0,1-.78-.35,2.12,2.12,0,0,1-.49-.75L7,11.15a1.29,1.29,0,0,0,.29.45.75.75,0,0,0,.41.19V10.32c-.68-.26-1-.66-1-1.18A.94.94,0,0,1,7,8.48a1.33,1.33,0,0,1,.75-.37Zm0,2.06v-1a.64.64,0,0,0-.34.16.38.38,0,0,0-.12.28C7.26,9.37,7.42,9.55,7.72,9.68Zm.29.77v1.37a.72.72,0,0,0,.45-.2.57.57,0,0,0,.16-.42C8.62,10.89,8.41,10.64,8,10.45Z"/>
  <rect fill="white" x="7.62" y="6.54" width="0.43" height="6.69"/>
</svg>
