<svg id="Layer_1" data-name="Layer 1" xmlns="http://www.w3.org/2000/svg" viewBox="0 0 16 16"><defs><style>.cls-1,.cls-2{fill-rule:evenodd;}.cls-2,.cls-4{fill:#fff;}.cls-3{fill:#e3e1e1;}</style></defs><title>icon</title><path class="cls-1" d="M2.47,12.68V4.62a.85.85,0,0,1,.85-.84h8.06Z"/><path class="cls-2" d="M2.47,12.85v-.17l8.91-8.9h.17a.85.85,0,0,1,.84.84v.17L3.49,13.7H3.32A.85.85,0,0,1,2.47,12.85Z"/><polygon class="cls-1" points="3.49 13.7 7.43 9.76 11.38 13.7 3.49 13.7"/><path class="cls-2" d="M11.38,13.7l-4-4,1-1,4,4v.17a.85.85,0,0,1-.84.85Z"/><polygon class="cls-1" points="12.39 12.68 8.45 8.74 12.39 4.79 12.39 12.68"/><path class="cls-3" d="M4.24,4.87a1.47,1.47,0,0,1,1.55.24l-.4.39A.86.86,0,0,0,4,5.82a.9.9,0,0,0,.76,1.24.8.8,0,0,0,.85-.6H4.82c0-.16,0-.33,0-.5.45,0,.91,0,1.36,0A1.55,1.55,0,0,1,6,7a1.36,1.36,0,0,1-1.49.61A1.43,1.43,0,0,1,3.41,6,1.45,1.45,0,0,1,4.24,4.87Z"/><path class="cls-4" d="M10.66,2.38H11a2.82,2.82,0,0,1,2.08,1.08,2.68,2.68,0,0,1,.54,1.43v.19a4.89,4.89,0,0,1-1.21,2.6A6.76,6.76,0,0,0,11,10.59c0,.18,0,.44-.21.52a.38.38,0,0,1-.15-.13,5.62,5.62,0,0,0-.48-1.75A10.67,10.67,0,0,0,9.09,7.44a8,8,0,0,1-.68-1.07,2.75,2.75,0,0,1-.3-1.86,2.57,2.57,0,0,1,.72-1.32A2.88,2.88,0,0,1,10.66,2.38ZM10.6,4.14A1,1,0,0,0,9.86,5a.94.94,0,0,0,.51.91,1,1,0,0,0,1.12-.15.91.91,0,0,0,.24-1A1,1,0,0,0,10.6,4.14Z"/><path d="M10.81,11.2l-.07,0a.71.71,0,0,1-.13-.12v0a5.59,5.59,0,0,0-.47-1.73A10.39,10.39,0,0,0,9,7.48a8.09,8.09,0,0,1-.7-1.08A2.84,2.84,0,0,1,8,4.49a2.67,2.67,0,0,1,.75-1.36,2.93,2.93,0,0,1,1.88-.83H11a2.86,2.86,0,0,1,2.14,1.12,2.65,2.65,0,0,1,.56,1.47v.19a4.5,4.5,0,0,1-1.11,2.48l-.12.16a7,7,0,0,0-1.34,2.88.76.76,0,0,0,0,.15c0,.16,0,.36-.25.44ZM10.76,11a.16.16,0,0,0,.07.07c.08,0,.09-.14.11-.28a.88.88,0,0,1,0-.17,7,7,0,0,1,1.36-2.94l.12-.16a4.43,4.43,0,0,0,1.08-2.39V4.89A2.64,2.64,0,0,0,13,3.51a2.75,2.75,0,0,0-2-1h-.32a2.84,2.84,0,0,0-1.77.78,2.5,2.5,0,0,0-.7,1.28,2.67,2.67,0,0,0,.29,1.81,7.35,7.35,0,0,0,.68,1.06A11,11,0,0,1,10.28,9.2,6,6,0,0,1,10.76,11Zm.07-4.9a1.11,1.11,0,0,1-.5-.12,1,1,0,0,1,.25-1.87,1.06,1.06,0,0,1,1.22.61,1,1,0,0,1-.25,1.1A1.09,1.09,0,0,1,10.83,6.05Zm0-1.86-.21,0h0A.87.87,0,0,0,9.94,5a.85.85,0,0,0,.46.82.94.94,0,0,0,1-.12.82.82,0,0,0,.21-.93A.88.88,0,0,0,10.83,4.19Z"/><path d="M10.6,4.14a1,1,0,0,1,1.13.56.91.91,0,0,1-.24,1,1,1,0,0,1-1.12.15A.94.94,0,0,1,9.86,5,1,1,0,0,1,10.6,4.14Z"/></svg>