<svg id="Layer_1" data-name="Layer 1" xmlns="http://www.w3.org/2000/svg" viewBox="0 0 16 16">
  <title>icon</title>
  <path d="M8.16,12,8,11.7A22.91,22.91,0,0,1,6.54,9.47,9.94,9.94,0,0,1,5,5,3.16,3.16,0,0,1,8.14,1.81h0A3.15,3.15,0,0,1,11.31,5c0,.65-.27,1.93-1.54,4.32-.59,1.09-1.18,2-1.41,2.4Zm0-9.7A2.68,2.68,0,0,0,5.47,5,9.61,9.61,0,0,0,7,9.23c.43.78.87,1.44,1.17,1.88.28-.46.74-1.21,1.19-2,1.23-2.3,1.49-3.5,1.49-4.09A2.68,2.68,0,0,0,8.15,2.3Z" fill="white"/>
  <path d="M8.15,3.84A1.2,1.2,0,1,1,7,5a1.2,1.2,0,0,1,1.2-1.2m0-.4A1.6,1.6,0,1,0,9.75,5a1.61,1.61,0,0,0-1.6-1.6Z" fill="white"/>
  <path d="M8.07,13.29c-2.25,0-3.94-.73-3.94-1.71,0-.68.81-1.26,2.16-1.54a.25.25,0,0,1,.3.19.25.25,0,0,1-.2.29c-1.22.26-1.77.72-1.77,1.06,0,.58,1.42,1.22,3.45,1.22s3.46-.64,3.46-1.22c0-.42-.75-.85-1.83-1.07A.25.25,0,0,1,9.8,10c1.39.29,2.22.87,2.22,1.56C12,12.56,10.32,13.29,8.07,13.29Z" fill="white"/>
</svg>
