<svg id="Layer_1" data-name="Layer 1" xmlns="http://www.w3.org/2000/svg" viewBox="0 0 16 16">
  <title>icon</title>
  <path d="M3.84,13a1.16,1.16,0,0,1-.57-.15,1.13,1.13,0,0,1-.56-1V4.51a1.12,1.12,0,0,1,.56-1,1.14,1.14,0,0,1,1.13,0l6.37,3.68a1.13,1.13,0,0,1,0,2L4.4,12.84A1.15,1.15,0,0,1,3.84,13Zm0-9.06A.6.6,0,0,0,3.55,4a.57.57,0,0,0-.28.5v7.35a.57.57,0,0,0,.28.5.58.58,0,0,0,.57,0l6.37-3.68a.57.57,0,0,0,0-1L4.12,4A.57.57,0,0,0,3.84,3.93Zm6.79,5h0Z" fill="white"/>
  <path d="M12.29,7.34l0,3.36-.19-.13a1.83,1.83,0,0,0-.28-.14,1.72,1.72,0,0,0-.66-.13,1.62,1.62,0,0,0-.58.11,1.06,1.06,0,0,0-.57.57A1.35,1.35,0,0,0,11,12.63a1.36,1.36,0,0,0,1.81-.55,1,1,0,0,0,.07-.33V5.08a.51.51,0,0,0-.28-.45L8,2.18a.57.57,0,0,0-.75.18.43.43,0,0,0-.08.27V5.81l0,1.33V8.25L7,8.13,6.74,8a1.88,1.88,0,0,0-.66-.12A1.35,1.35,0,0,0,5.51,8a1,1,0,0,0-.58.57,1.36,1.36,0,0,0,.93,1.65,1.36,1.36,0,0,0,1.81-.55.8.8,0,0,0,.07-.34V4.89A.48.48,0,0,1,8,4.46a.57.57,0,0,1,.54,0L12,6.3a.59.59,0,0,1,.31.51Z" fill="white"/>
</svg>
