<svg id="Layer_1" data-name="Layer 1" xmlns="http://www.w3.org/2000/svg" viewBox="0 0 16 16">
  <defs>
    <style>.cls-1{fill:white;}</style>
  </defs>
  <title>icon</title>
  <path class="cls-1" d="M11.89,7.06l-1.38.85-.62.38L8,9.44,6.13,8.29l-.61-.38L4.11,7.06l-.38-.23L2.49,6.07v6.47a.08.08,0,0,0,.07.08H13.44a.08.08,0,0,0,.07-.08V6.07l-1.24.76Z"/>
  <polygon class="cls-1" points="6.85 8.29 8.02 9 9.18 8.29 9.79 7.91 11.66 6.77 11.66 4.78 11.66 4.34 11.66 3.56 10.39 3.56 9.68 3.56 6.35 3.56 5.63 3.56 4.25 3.56 4.25 4.4 4.25 4.84 4.25 6.7 6.24 7.91 6.85 8.29"/>
  <path class="cls-1" d="M13.54,5.49l-1.27-.78L12,4.57V3.19H9.78L8,2.11,6.24,3.19H3.87V4.63l-.14.08-1.27.78a.45.45,0,0,0-.35.44v6.61a.45.45,0,0,0,.45.45H13.44a.45.45,0,0,0,.45-.45V5.93A.45.45,0,0,0,13.54,5.49ZM4.25,4.84V3.56h7.41V6.77L9.79,7.91l-.61.38L8,9,6.85,8.29l-.61-.38-2-1.21Zm9.26,7.7a.08.08,0,0,1-.07.08H2.56a.08.08,0,0,1-.07-.08V6.07l1.24.76.38.23,1.41.85.61.38L8,9.44,9.89,8.29l.62-.38,1.38-.85.38-.23,1.24-.76Z"/>
  <path class="cls-1" d="M6.12,6.57a.61.61,0,0,1,0-.27V6c0-.2-.06-.27-.22-.27H5.75v.88H5.41V4.41h.51c.35,0,.5.16.5.5v.16a.43.43,0,0,1-.22.44c.17.07.22.24.22.46V6.3a.73.73,0,0,0,0,.27Z"/>
  <path class="cls-1" d="M7.25,4.38c.34,0,.5.2.5.55V5H7.43V4.91c0-.16-.06-.22-.17-.22s-.16.06-.16.22c0,.44.66.52.66,1.14a.47.47,0,0,1-.51.54c-.33,0-.5-.2-.5-.54V5.92h.32v.15c0,.15.07.21.17.21s.18-.06.18-.21c0-.44-.66-.53-.66-1.14C6.76,4.58,6.93,4.38,7.25,4.38Z"/>
  <path class="cls-1" d="M8.61,6.17l.26-1.76h.31L8.85,6.57h-.5L8,4.41h.34Z"/>
  <path class="cls-1" d="M10.5,4.94v.28c0,.35-.17.54-.51.54H9.83v.81H9.49V4.41H10A.47.47,0,0,1,10.5,4.94Zm-.67-.22v.73H10c.11,0,.17,0,.17-.21V4.92c0-.15-.06-.2-.17-.2Z"/>
</svg>
