<svg id="Layer_1" data-name="Layer 1" xmlns="http://www.w3.org/2000/svg" viewBox="0 0 99.24 11.87"><title>icon</title><path d="M29.29,9.09C24,9.08,1.75,9,1.74,8.37c0-.32.33-.2.52-.2L11.34,8l12.83-.24,6.11-.12c.67,0,1,.25,1,.71s-.37.74-1.07.74Z"/><path d="M71.69,7.73l.68,0c2.24,0,25.08,0,25.09.6,0,.28-.25.19-.41.19l-6.11.12L77.82,8.9,69,9.09h-.24a.69.69,0,0,1-.79-.75c0-.49.31-.7.78-.7C69.72,7.64,70.71,7.7,71.69,7.73Z"/><path d="M35,8.52c-.26.94-.72,1.36-1.48,1.38a1.57,1.57,0,0,1-1.58-1.1,1.65,1.65,0,0,1,.74-1.9,3.16,3.16,0,0,1,2.56-.35,6.68,6.68,0,0,1,3.06,1.62,19.45,19.45,0,0,0,2.48,1.94,3.75,3.75,0,0,0,2.88.56c.34-.07.69-.15.76-.54s-.32-.58-.65-.72l-.27-.12a1.3,1.3,0,0,1,1.9.16A1.25,1.25,0,0,1,45,11.22a3.38,3.38,0,0,1-3.22.43A8.65,8.65,0,0,1,39,10.14a20,20,0,0,0-3-2,3.71,3.71,0,0,0-2.11-.48c-.41,0-.88.08-.8.7,0,.45.43.63,1,.48A8.61,8.61,0,0,0,35,8.52Z"/><path d="M64.3,8.55a7.29,7.29,0,0,0,.8.31c.58.15,1,0,1-.48s-.22-.66-.87-.71a3.93,3.93,0,0,0-2.2.56A20.92,20.92,0,0,0,60.41,10a9.4,9.4,0,0,1-3,1.64,3.52,3.52,0,0,1-3-.33,1.45,1.45,0,0,1-.73-1.55c.28-.84,1.18-1.07,2.07-.51l-.43.18c-.28.13-.55.3-.52.64s.35.48.64.54a3.75,3.75,0,0,0,2.8-.39,16,16,0,0,0,2.5-1.9,6.52,6.52,0,0,1,4.11-1.9,2.46,2.46,0,0,1,2.3,1.06A1.48,1.48,0,0,1,67,9.28a1.55,1.55,0,0,1-1.75.54A1.29,1.29,0,0,1,64.3,8.55Z"/><path d="M49.59,4.71a4.07,4.07,0,0,1,0-4.71A4,4,0,0,1,49.59,4.71Z"/><path d="M48.54,5.78A4,4,0,0,1,45.9,1.91,4.07,4.07,0,0,1,48.54,5.78Z"/><path d="M50.7,5.76a4,4,0,0,1,2.63-3.85A4,4,0,0,1,50.7,5.76Z"/><path d="M42.75,8.26c-.13.22.09.3.17.43a1.82,1.82,0,0,1-1.61-2,1.11,1.11,0,0,1,1.94-.42,2,2,0,0,1,.42,2.05c-.17-.1-.14-.29-.2-.43a2.7,2.7,0,0,0-.18-.5c-.14-.29-.32-.57-.71-.47s-.5.23-.45.54.09.8.63.81Z"/><path d="M45.26,8.35a3.07,3.07,0,0,0,.49-.74c.17-.41.21-.78-.28-1s-.7.1-.82.62c-.06.29-.1.59-.14.88a1.87,1.87,0,0,1,.42-2.47A1.14,1.14,0,0,1,46.45,6,1.73,1.73,0,0,1,45.26,8.35Z"/><path d="M53.2,9a8.23,8.23,0,0,0-1-.5.55.55,0,0,0-.75.37.54.54,0,0,0,.34.72,3.31,3.31,0,0,0,1.17.2,1.82,1.82,0,0,1-2.52-.44,1.11,1.11,0,0,1,.61-1.56A1.82,1.82,0,0,1,53.2,9Z"/><path d="M53.93,8.37a1.79,1.79,0,0,1-1.22-2.23,1.11,1.11,0,0,1,1.79-.31,2,2,0,0,1,.18,2.4,3.57,3.57,0,0,0-.17-1.15c-.15-.34-.36-.6-.77-.44s-.49.46-.31.87A7.25,7.25,0,0,0,53.93,8.37Z"/><path d="M45.91,9a2.16,2.16,0,0,1,1.6-1.3,1.1,1.1,0,0,1,1.27.62,1.06,1.06,0,0,1-.4,1.4,2.17,2.17,0,0,1-2.25.09c.46-.15.83-.08,1.17-.21s.57-.44.42-.83-.48-.43-.83-.27S46.29,8.8,45.91,9Z"/><path d="M56.31,8.71a4.46,4.46,0,0,0,.75-1,.51.51,0,0,0-.2-.71.55.55,0,0,0-.79.13,5.5,5.5,0,0,0-.52,1.33,2.28,2.28,0,0,1,.58-2.35A1,1,0,0,1,57.43,6a1,1,0,0,1,.47,1.23A1.92,1.92,0,0,1,56.31,8.71Z"/><path d="M49.62,5.51a2.32,2.32,0,0,1,0,2.52A2,2,0,0,1,49.62,5.51Z"/><path d="M98.53,9A.58.58,0,0,1,98,8.35a.6.6,0,0,1,.68-.64.61.61,0,0,1,.6.68A.63.63,0,0,1,98.53,9Z"/><path d="M.46,9C.23,9,0,8.76,0,8.37a.6.6,0,0,1,.61-.66.6.6,0,0,1,.66.66C1.25,8.74,1.05,9,.46,9Z"/><path d="M54.19,7.44a.31.31,0,0,1,.3.35.29.29,0,0,1-.31.28.31.31,0,0,1-.35-.31A.32.32,0,0,1,54.19,7.44Z"/><path d="M56.23,7.69a.34.34,0,0,1,.34.33.3.3,0,0,1-.29.36.3.3,0,0,1-.34-.32A.33.33,0,0,1,56.23,7.69Z"/><path d="M42.76,8.27c-.21-.18-.15-.34,0-.49a.27.27,0,0,1,.41,0,.26.26,0,0,1,0,.37c-.15.19-.31.25-.49.06Z"/><path d="M52.94,9.23c-.07.2-.2.31-.4.26a.31.31,0,0,1,.1-.62A.34.34,0,0,1,52.94,9.23Z"/><path d="M46.6,8.86c.21,0,.33.14.32.35a.28.28,0,0,1-.31.28.27.27,0,0,1-.3-.28A.31.31,0,0,1,46.6,8.86Z"/><path d="M45.36,7.73c0,.22-.11.32-.28.33a.28.28,0,0,1-.33-.31A.28.28,0,0,1,45,7.44.29.29,0,0,1,45.36,7.73Z"/></svg>