<svg id="Layer_1" data-name="Layer 1" xmlns="http://www.w3.org/2000/svg" viewBox="0 0 16 16"><title>icon</title><path d="M5.07,12.14l-.14,0C3,11.72,2,10.88,2,9.64A.67.67,0,0,1,2.71,9a.62.62,0,0,0,.54-.2,1.68,1.68,0,0,0,.21-1.15A4.78,4.78,0,0,1,4.88,4.16,5.46,5.46,0,0,1,8.72,2.6,5.11,5.11,0,0,1,14,7.52a4.88,4.88,0,0,1-2.9,4.39l-.27-.58a4.25,4.25,0,0,0,2.53-3.81A4.48,4.48,0,0,0,8.72,3.23,4.83,4.83,0,0,0,5.33,4.61a4.16,4.16,0,0,0-1.24,3,2.22,2.22,0,0,1-.36,1.62,1.28,1.28,0,0,1-1,.41c0,.94.77,1.56,2.35,1.9Z"/><path d="M8.72,12.43c-.75,0-1.36,0-1.91-.06l.06-.64c.53,0,1.12.07,1.85.07a3,3,0,0,0,.43,0l.07.64A4.18,4.18,0,0,1,8.72,12.43Z"/><path d="M10.14,13.49a1.38,1.38,0,1,1,1.37-1.37A1.37,1.37,0,0,1,10.14,13.49Zm0-2.11a.74.74,0,1,0,.73.74A.73.73,0,0,0,10.14,11.38Z"/><path d="M5.89,13.49a1.38,1.38,0,1,1,1.37-1.37A1.38,1.38,0,0,1,5.89,13.49Zm0-2.11a.74.74,0,0,0,0,1.47.74.74,0,0,0,0-1.47Z"/><path d="M7.32,6.1h0A.36.36,0,0,0,7,6.45a.36.36,0,0,0,.36.36.36.36,0,1,0,0-.71Z"/><path d="M10.15,6.1h0a.35.35,0,0,0-.35.35.36.36,0,1,0,.35-.35Z"/><path d="M8.72,10.1A2.3,2.3,0,0,1,6.46,8.29a.33.33,0,0,1,.25-.38.32.32,0,0,1,.38.24,1.68,1.68,0,0,0,3.27,0,.32.32,0,0,1,.62.14A2.3,2.3,0,0,1,8.72,10.1Z"/></svg>